<svg width="131" height="31" viewBox="0 0 131 31" fill="none" xmlns="http://www.w3.org/2000/svg">
<g clip-path="url(#clip0_22_69)">
<path d="M33.9421 6.06756C33.9421 5.53772 34.1518 5.02959 34.525 4.65495C34.8982 4.2803 35.4044 4.06983 35.9321 4.06983C36.4599 4.06983 36.9661 4.2803 37.3393 4.65495C37.7125 5.02959 37.9222 5.53772 37.9222 6.06756V23.1342C37.9222 23.6641 37.7125 24.1722 37.3393 24.5469C36.9661 24.9215 36.4599 25.132 35.9321 25.132C35.4044 25.132 34.8982 24.9215 34.525 24.5469C34.1518 24.1722 33.9421 23.6641 33.9421 23.1342V6.06756ZM42.0671 6.06756C42.0673 5.64273 42.2025 5.22903 42.4528 4.88655C42.7032 4.54407 43.0559 4.29063 43.4595 4.16305C43.8632 4.03548 44.2968 4.0404 44.6975 4.17711C45.0982 4.31381 45.445 4.57519 45.6876 4.92327L55.5679 17.4107V6.06756C55.5679 5.53772 55.7775 5.02959 56.1507 4.65495C56.5239 4.2803 57.0301 4.06982 57.5579 4.06982C58.0857 4.06982 58.5918 4.2803 58.965 4.65495C59.3382 5.02959 59.5479 5.53772 59.5479 6.06756V23.1342C59.5477 23.5591 59.4126 23.9728 59.1622 24.3153C58.9118 24.6577 58.5591 24.9112 58.1555 25.0387C57.7518 25.1663 57.3182 25.1614 56.9175 25.0247C56.5168 24.888 56.17 24.6266 55.9274 24.2785L46.045 11.7826V23.1279C46.045 23.6577 45.8354 24.1658 45.4622 24.5405C45.089 24.9151 44.5828 25.1256 44.055 25.1256C43.5272 25.1256 43.0211 24.9151 42.6479 24.5405C42.2747 24.1658 42.065 23.6577 42.065 23.1279V6.06756H42.0671ZM69.7136 4.07195H76.6226C77.1504 4.07195 77.6566 4.28242 78.0298 4.65707C78.403 5.03172 78.6126 5.53985 78.6126 6.06968C78.6126 6.59951 78.403 7.10764 78.0298 7.48229C77.6566 7.85693 77.1504 8.06741 76.6226 8.06741H71.7586V23.1406C71.7586 23.6704 71.549 24.1786 71.1758 24.5532C70.8026 24.9279 70.2964 25.1383 69.7686 25.1383C69.2408 25.1383 68.7347 24.9279 68.3615 24.5532C67.9883 24.1786 67.7786 23.6704 67.7786 23.1406V8.06741H62.9463C62.4186 8.06741 61.9124 7.85693 61.5392 7.48229C61.166 7.10764 60.9563 6.59951 60.9563 6.06968C60.9563 5.53985 61.166 5.03172 61.5392 4.65707C61.9124 4.28242 62.4186 4.07195 62.9463 4.07195H69.7136ZM80.6513 6.06756V6.0166V5.96565V5.91682V5.86799V5.81917V5.77034V5.72151V5.67268L80.7105 5.62597L80.7211 5.57927L80.7338 5.53256L80.7465 5.48586L80.7613 5.43915L80.7782 5.39457L80.7951 5.34999L80.8141 5.3054L80.8332 5.26294L80.8543 5.22048L80.8755 5.17802L80.8987 5.13556L80.922 5.09523C81.096 4.79007 81.3472 4.53648 81.6503 4.36014C81.9533 4.1838 82.2974 4.09098 82.6476 4.09105H90.356C91.2079 4.0908 92.0515 4.25945 92.8383 4.58734C93.6251 4.91523 94.3396 5.3959 94.9409 6.00174C95.5438 6.60697 96.0222 7.32551 96.3485 8.11633C96.6749 8.90715 96.8428 9.75476 96.8428 10.6107C96.8428 11.4667 96.6749 12.3143 96.3485 13.1052C96.0222 13.896 95.5438 14.6145 94.9409 15.2198L94.8161 15.3344C94.366 15.7631 93.8577 16.1255 93.3061 16.4107L97.2058 21.9942C97.3607 22.2081 97.4715 22.4507 97.5319 22.7081C97.5922 22.9655 97.6009 23.2323 97.5573 23.493C97.5137 23.7538 97.4188 24.0032 97.2781 24.2267C97.1374 24.4502 96.9537 24.6433 96.7378 24.7947C96.5219 24.9461 96.2781 25.0528 96.0207 25.1085C95.7632 25.1642 95.4973 25.1679 95.2384 25.1192C94.9795 25.0706 94.7329 24.9706 94.513 24.8252C94.2931 24.6797 94.1042 24.4917 93.9575 24.2722L88.9729 17.1028H84.6334V23.1342C84.6334 23.6641 84.4238 24.1722 84.0506 24.5469C83.6774 24.9215 83.1712 25.132 82.6434 25.132C82.1156 25.132 81.6095 24.9215 81.2363 24.5469C80.8631 24.1722 80.6534 23.6641 80.6534 23.1342V6.06968L80.6513 6.06756ZM90.4068 8.06529H84.6334V13.1074H90.4385C91.0398 13.0889 91.6145 12.8546 92.0584 12.4471L92.1303 12.3707C92.4794 12.0213 92.7183 11.5766 92.8174 11.0919C92.9165 10.6071 92.8714 10.1039 92.6877 9.6447C92.5039 9.18553 92.1897 8.79076 91.7842 8.50955C91.3786 8.22833 90.8996 8.07309 90.4068 8.06316V8.06529ZM101 6.06756C101 5.53772 101.209 5.02959 101.583 4.65495C101.956 4.2803 102.462 4.06982 102.99 4.06982C103.517 4.06982 104.024 4.2803 104.397 4.65495C104.77 5.02959 104.98 5.53772 104.98 6.06756V23.1342C104.98 23.6641 104.77 24.1722 104.397 24.5469C104.024 24.9215 103.517 25.132 102.99 25.132C102.462 25.132 101.956 24.9215 101.583 24.5469C101.209 24.1722 101 23.6641 101 23.1342V6.06756ZM109.575 6.06756V6.0166V5.96565V5.91682V5.86799V5.81917V5.77034V5.72151V5.67268L109.586 5.62597L109.596 5.57927L109.609 5.53256L109.622 5.48586L109.636 5.43915L109.653 5.39457L109.67 5.34999L109.689 5.3054L109.708 5.26294L109.73 5.22048L109.751 5.17802L109.774 5.13556L109.797 5.09523C109.971 4.79007 110.222 4.53648 110.525 4.36014C110.829 4.1838 111.173 4.09098 111.523 4.09105H118.142C120.538 4.09105 122.668 5.36485 124.171 7.40928C125.544 9.26053 126.39 11.8124 126.39 14.602C126.39 17.3916 125.544 19.9434 124.167 21.8201C122.664 23.8709 120.534 25.1383 118.138 25.1383H111.565C111.037 25.1383 110.531 24.9279 110.158 24.5532C109.785 24.1786 109.575 23.6704 109.575 23.1406V6.06968V6.06756ZM118.142 8.06741H113.555V21.1365H118.142C119.2 21.1365 120.208 20.4996 120.97 19.4572C121.862 18.2408 122.414 16.5254 122.414 14.602C122.414 12.6785 121.862 10.9632 120.97 9.74669C120.204 8.70855 119.2 8.06741 118.142 8.06741Z" fill="white"/>
<path d="M131 3.48187C131.019 4.19418 130.827 4.89608 130.446 5.49769C130.066 6.0993 129.515 6.57324 128.865 6.85883C128.215 7.14441 127.494 7.22864 126.796 7.10072C126.098 6.9728 125.453 6.63856 124.945 6.1408C124.437 5.64304 124.089 5.00442 123.945 4.30671C123.801 3.60899 123.867 2.88395 124.136 2.22441C124.404 1.56488 124.863 1.00087 125.453 0.604622C126.043 0.208368 126.737 -0.00209855 127.447 0.000172135C127.909 -0.00883874 128.368 0.0744392 128.798 0.245162C129.227 0.415885 129.619 0.670646 129.949 0.994627C130.28 1.31861 130.543 1.70534 130.724 2.13234C130.904 2.55934 130.998 3.01807 131 3.48187ZM124.761 3.48187C124.761 5.03165 125.903 6.26298 127.468 6.26298C128.991 6.26298 130.112 5.03165 130.112 3.5031C130.112 1.97455 128.991 0.700757 127.447 0.700757C125.903 0.700757 124.761 1.95332 124.761 3.48187ZM126.897 5.30764H126.094V1.82594C126.534 1.74816 126.98 1.71262 127.426 1.71979C128.082 1.71979 128.378 1.82594 128.632 1.97455C128.741 2.06835 128.829 2.18573 128.887 2.31802C128.946 2.45031 128.974 2.59412 128.97 2.73882C128.97 3.12096 128.674 3.41818 128.251 3.54556V3.58802C128.589 3.7154 128.78 3.97016 128.885 4.43721C128.991 4.96796 129.054 5.18026 129.139 5.30764H128.272C128.166 5.18026 128.103 4.86181 127.997 4.45844C127.934 4.07631 127.722 3.90647 127.278 3.90647H126.897V5.30764ZM126.919 3.33326H127.299C127.743 3.33326 128.103 3.18465 128.103 2.82374C128.103 2.5053 127.87 2.293 127.363 2.293C127.213 2.28982 127.064 2.30407 126.919 2.33546V3.33326Z" fill="white"/>
<path fill-rule="evenodd" clip-rule="evenodd" d="M14.3526 11.9228C15.0373 11.9228 15.7066 12.1266 16.2759 12.5085C16.8452 12.8904 17.289 13.4331 17.551 14.0682C17.813 14.7032 17.8816 15.402 17.748 16.0761C17.6144 16.7503 17.2847 17.3695 16.8005 17.8556C16.3164 18.3416 15.6995 18.6726 15.028 18.8067C14.3564 18.9408 13.6604 18.872 13.0278 18.6089C12.3952 18.3459 11.8545 17.9004 11.4741 17.3289C11.0937 16.7574 10.8907 16.0855 10.8907 15.3981C10.8907 14.4764 11.2554 13.5924 11.9047 12.9407C12.5539 12.2889 13.4345 11.9228 14.3526 11.9228ZM14.3526 1.00003C17.6704 1.00239 20.8848 2.15941 23.4482 4.274C26.0115 6.38859 27.7654 9.32994 28.4108 12.597C29.0563 15.864 28.5535 19.2547 26.9881 22.1914C25.4227 25.128 22.8916 27.429 19.8258 28.7024C16.7601 29.9758 13.3493 30.1428 10.1747 29.1749C7.00006 28.2071 4.25786 26.1642 2.41525 23.3944C0.572632 20.6246 -0.256423 17.2992 0.0693124 13.9846C0.395048 10.67 1.85543 7.57124 4.20167 5.21628C5.5332 3.87636 7.11556 2.81402 8.85768 2.09042C10.5998 1.36683 12.4673 0.996251 14.3526 1.00003ZM21.932 7.79359C20.1783 6.03218 17.8705 4.93572 15.4018 4.69104C12.9331 4.44636 10.4563 5.06861 8.39337 6.45175C6.33047 7.8349 4.80914 9.89334 4.08864 12.2763C3.36814 14.6593 3.49305 17.2194 4.44208 19.5203C5.39111 21.8211 7.10553 23.7205 9.29321 24.8946C11.4809 26.0688 14.0064 26.4451 16.4395 25.9594C18.8726 25.4737 21.0626 24.156 22.6364 22.231C24.2102 20.306 25.0703 17.8927 25.0703 15.4024C25.0725 13.9877 24.796 12.5866 24.2567 11.2797C23.7174 9.97277 22.9258 8.78584 21.9277 7.78722L21.932 7.79359Z" fill="#00EAFF"/>
</g>
<defs>
<clipPath id="clip0_22_69">
<rect width="131" height="31" fill="white"/>
</clipPath>
</defs>
</svg>
